<svg xmlns="http://www.w3.org/2000/svg" viewBox="0 0 240 320" width="240" height="320">
  <rect width="240" height="320" fill="#fdf2f8"/>
  <!-- floral edge -->
  <g fill="#db2777" opacity="0.4">
    <circle cx="20" cy="20" r="6"/>
    <circle cx="34" cy="34" r="4"/>
    <circle cx="220" cy="20" r="6"/>
    <circle cx="206" cy="34" r="4"/>
    <circle cx="20" cy="300" r="6"/>
    <circle cx="220" cy="300" r="6"/>
    <circle cx="40" cy="290" r="4"/>
    <circle cx="200" cy="290" r="4"/>
  </g>
  <g fill="#fbcfe8">
    <circle cx="14" cy="160" r="3"/>
    <circle cx="226" cy="160" r="3"/>
    <circle cx="120" cy="14" r="2.5"/>
  </g>
  <text x="120" y="46" text-anchor="middle" fill="#db2777" font-family="serif" font-size="10" font-weight="900" letter-spacing="3">~ OUR WEDDING ~</text>
  <text x="120" y="106" text-anchor="middle" fill="#500724" font-family="serif" font-size="22" font-weight="900">婚禮晚宴</text>
  <line x1="80" y1="130" x2="100" y2="130" stroke="#db2777" stroke-width="1"/>
  <text x="120" y="135" text-anchor="middle" fill="#db2777" font-size="14">❀</text>
  <line x1="140" y1="130" x2="160" y2="130" stroke="#db2777" stroke-width="1"/>
  <text x="120" y="160" text-anchor="middle" fill="#831843" font-family="-apple-system, sans-serif" font-size="11" font-weight="600">2026.10.18 · 18:30</text>
  <text x="120" y="200" text-anchor="middle" fill="#831843" font-family="serif" font-size="11">親愛的</text>
  <text x="120" y="232" text-anchor="middle" fill="#500724" font-family="serif" font-size="24" font-weight="900">陳大文</text>
  <text x="120" y="268" text-anchor="middle" fill="#831843" font-family="serif" font-size="9">Ritz-Carlton · Hong Kong</text>
  <rect x="80" y="280" width="80" height="80" fill="#fff" rx="6" stroke="#db2777" stroke-width="0.5"/>
  <rect x="92" y="292" width="56" height="56" fill="#500724"/>
</svg>
